<?xml version="1.0" encoding="UTF-8" standalone="no"?>
<!-- Created with Inkscape (http://www.inkscape.org/) -->

<svg
   width="148"
   height="148"
   id="svg3642"
   sodipodi:version="0.32"
   inkscape:version="1.4.2 (ebf0e940d0, 2025-05-08)"
   sodipodi:docname="tracks-background.svg"
   inkscape:output_extension="org.inkscape.output.svgz.inkscape"
   version="1.0"
   xmlns:inkscape="http://www.inkscape.org/namespaces/inkscape"
   xmlns:sodipodi="http://sodipodi.sourceforge.net/DTD/sodipodi-0.dtd"
   xmlns="http://www.w3.org/2000/svg"
   xmlns:svg="http://www.w3.org/2000/svg"
   xmlns:rdf="http://www.w3.org/1999/02/22-rdf-syntax-ns#"
   xmlns:cc="http://creativecommons.org/ns#"
   xmlns:dc="http://purl.org/dc/elements/1.1/">
  <sodipodi:namedview
     id="base"
     pagecolor="#919191"
     bordercolor="#666666"
     borderopacity="1.0"
     inkscape:pageopacity="1"
     inkscape:pageshadow="2"
     inkscape:zoom="10.378378"
     inkscape:cx="25.389324"
     inkscape:cy="49.526043"
     inkscape:current-layer="layer1"
     showgrid="true"
     inkscape:grid-bbox="true"
     inkscape:document-units="px"
     inkscape:window-width="1920"
     inkscape:window-height="1016"
     inkscape:window-x="0"
     inkscape:window-y="0"
     width="148px"
     height="148px"
     objecttolerance="23"
     gridtolerance="10"
     guidetolerance="25"
     showguides="true"
     inkscape:guide-bbox="true"
     inkscape:window-maximized="1"
     inkscape:showpageshadow="2"
     inkscape:pagecheckerboard="0"
     inkscape:deskcolor="#919191">
    <inkscape:grid
       snapvisiblegridlinesonly="true"
       empspacing="5"
       enabled="true"
       visible="true"
       id="grid3357"
       type="xygrid"
       originx="0"
       originy="0"
       spacingy="1"
       spacingx="1"
       units="px" />
  </sodipodi:namedview>
  <defs
     id="defs3644">
    <style
       type="text/css"
       id="current-color-scheme">
      .ColorScheme-Text {
        color:#7B7C7E;
      }
      .ColorScheme-Background{
        color:#EFF0F1;
      }
      .ColorScheme-Highlight{
        color:#3DAEE6;
      }
      .ColorScheme-ViewText {
        color:#7B7C7E;
      }
      .ColorScheme-ViewBackground{
        color:#FCFCFC;
      }
      .ColorScheme-ViewHover {
        color:#3DAEE6;
      }
      .ColorScheme-ViewFocus{
        color:#1E92FF;
      }
      .ColorScheme-ButtonText {
        color:#7B7C7E;
      }
      .ColorScheme-ButtonBackground{
        color:#EFF0F1;
      }
      .ColorScheme-ButtonHover {
        color:#3DAEE6;
      }
      .ColorScheme-ButtonFocus{
        color:#1E92FF;
      }
</style>
    <linearGradient
       id="linearGradient3809-7">
      <stop
         id="stop3811-0"
         offset="0"
         style="stop-color:#232629;stop-opacity:0.23921569;" />
      <stop
         style="stop-color:#111314;stop-opacity:0.09803922;"
         offset="0.5"
         id="stop3817-7" />
      <stop
         id="stop3815-7"
         offset="1"
         style="stop-color:#000000;stop-opacity:0;" />
    </linearGradient>
    <linearGradient
       id="linearGradient3809-3">
      <stop
         id="stop3811-1"
         offset="0"
         style="stop-color:#232629;stop-opacity:0.23921569;" />
      <stop
         style="stop-color:#111314;stop-opacity:0.09803922;"
         offset="0.5"
         id="stop3817-3" />
      <stop
         id="stop3815-2"
         offset="1"
         style="stop-color:#000000;stop-opacity:0;" />
    </linearGradient>
    <linearGradient
       id="linearGradient3809-4">
      <stop
         id="stop3811-5"
         offset="0"
         style="stop-color:#232629;stop-opacity:0.23921569;" />
      <stop
         style="stop-color:#111314;stop-opacity:0.09803922;"
         offset="0.5"
         id="stop3817-6" />
      <stop
         id="stop3815-73"
         offset="1"
         style="stop-color:#000000;stop-opacity:0;" />
    </linearGradient>
    <linearGradient
       id="linearGradient3809-8">
      <stop
         id="stop3811-4"
         offset="0"
         style="stop-color:#232629;stop-opacity:0.23921569;" />
      <stop
         style="stop-color:#111314;stop-opacity:0.09803922;"
         offset="0.5"
         id="stop3817-2" />
      <stop
         id="stop3815-20"
         offset="1"
         style="stop-color:#000000;stop-opacity:0;" />
    </linearGradient>
    <linearGradient
       id="linearGradient3828-6">
      <stop
         id="stop3830-5"
         offset="0"
         style="stop-color:#232629;stop-opacity:0.239" />
      <stop
         style="stop-color:#1a1c1e;stop-opacity:0.239"
         offset="0.33000001"
         id="stop3836-0" />
      <stop
         style="stop-color:#111314;stop-opacity:0.098"
         offset="0.66000003"
         id="stop3832-2" />
      <stop
         id="stop3834-3"
         offset="1"
         style="stop-color:#000000;stop-opacity:0;" />
    </linearGradient>
    <linearGradient
       id="linearGradient3828-0">
      <stop
         id="stop3830-7"
         offset="0"
         style="stop-color:#232629;stop-opacity:0.239" />
      <stop
         style="stop-color:#1a1c1e;stop-opacity:0.239"
         offset="0.33000001"
         id="stop3836-9" />
      <stop
         style="stop-color:#111314;stop-opacity:0.098"
         offset="0.66000003"
         id="stop3832-0" />
      <stop
         id="stop3834-0"
         offset="1"
         style="stop-color:#000000;stop-opacity:0;" />
    </linearGradient>
    <linearGradient
       id="linearGradient3828-4">
      <stop
         id="stop3830-4"
         offset="0"
         style="stop-color:#232629;stop-opacity:0.239" />
      <stop
         style="stop-color:#1a1c1e;stop-opacity:0.239"
         offset="0.33000001"
         id="stop3836-3" />
      <stop
         style="stop-color:#111314;stop-opacity:0.098"
         offset="0.66000003"
         id="stop3832-8" />
      <stop
         id="stop3834-9"
         offset="1"
         style="stop-color:#000000;stop-opacity:0;" />
    </linearGradient>
    <linearGradient
       id="linearGradient3828-2">
      <stop
         id="stop3830-75"
         offset="0"
         style="stop-color:#232629;stop-opacity:0.239" />
      <stop
         style="stop-color:#1a1c1e;stop-opacity:0.239"
         offset="0.33000001"
         id="stop3836-31" />
      <stop
         style="stop-color:#111314;stop-opacity:0.098"
         offset="0.66000003"
         id="stop3832-9" />
      <stop
         id="stop3834-7"
         offset="1"
         style="stop-color:#000000;stop-opacity:0;" />
    </linearGradient>
  </defs>
  <metadata
     id="metadata3647">
    <rdf:RDF>
      <cc:Work
         rdf:about="">
        <dc:format>image/svg+xml</dc:format>
        <dc:type
           rdf:resource="http://purl.org/dc/dcmitype/StillImage" />
        <dc:title />
      </cc:Work>
      <cc:Work
         rdf:about="">
        <dc:format>image/svg+xml</dc:format>
        <dc:type
           rdf:resource="http://purl.org/dc/dcmitype/StillImage" />
      </cc:Work>
      <cc:Work
         rdf:about="">
        <dc:format>image/svg+xml</dc:format>
        <dc:type
           rdf:resource="http://purl.org/dc/dcmitype/StillImage" />
      </cc:Work>
    </rdf:RDF>
  </metadata>
  <g
     inkscape:groupmode="layer"
     inkscape:label="Layer 1"
     id="layer1">
    <rect
       y="8.625"
       x="5"
       height="4.375"
       width="5"
       id="hint-stretch-borders"
       style="opacity:0.875;fill:#008000;fill-opacity:1;stroke:none;stroke-width:0;stroke-miterlimit:4;stroke-dasharray:none;stroke-opacity:1" />
    <text
       id="text4270"
       y="-506.74683"
       x="198.334"
       style="font-style:normal;font-variant:normal;font-weight:bold;font-stretch:normal;line-height:0%;font-family:'Gill Sans';text-align:justify;writing-mode:lr-tb;text-anchor:start;fill:#000000;fill-opacity:1;stroke:none;stroke-width:1px;stroke-linecap:butt;stroke-linejoin:miter;stroke-opacity:1"
       xml:space="preserve"><tspan
         y="-506.74683"
         x="198.334"
         id="tspan4272"
         sodipodi:role="line"
         style="font-size:14px;line-height:1.25"> </tspan></text>
    <g
       style="opacity:0.97899996"
       transform="matrix(-0.75,0,0,0.75,133.5,29.499998)"
       id="g3041" />
    <g
       id="top"
       transform="matrix(0.5517241,0,0,2,10.793569,-227.0006)">
      <path
         inkscape:connector-curvature="0"
         id="path2667"
         d="M 4,127.0003 V 129 h 58 v -1.9997 c -0.02169,-6.7e-4 -0.04064,0 -0.0625,0 H 4.0625 c -0.021861,0 -0.040806,-6.7e-4 -0.0625,0 z"
         style="fill:#4d4d4d" />
      <path
         inkscape:connector-curvature="0"
         d="M 4,127.00007 V 127.5 h 58 v -0.49993 c -0.02169,-1.6e-4 -0.04064,0 -0.0625,0 H 4.0625 c -0.021861,0 -0.040806,-1.6e-4 -0.0625,0 z"
         id="path5283"
         style="fill:#4d4d4d;opacity:1" />
    </g>
    <g
       id="right"
       transform="matrix(2,0,0,2.4615385,-78.999535,-286.53907)">
      <path
         inkscape:connector-curvature="0"
         id="path2679"
         d="m 62,129 v 13 h 1.999703 c 6.68e-4,-0.0217 0,-0.0406 0,-0.0625 v -12.875 c 0,-0.0219 6.68e-4,-0.0408 0,-0.0625 z"
         style="fill:#4d4d4d" />
      <path
         inkscape:connector-curvature="0"
         d="m 63.500223,129 v 13 h 0.5 c 1.67e-4,-0.0217 0,-0.0406 0,-0.0625 v -12.875 c 0,-0.0219 1.67e-4,-0.0408 0,-0.0625 z"
         id="path5344"
         style="fill:#4d4d4d;opacity:1" />
    </g>
    <g
       id="bottom"
       transform="matrix(0.5517241,0,0,2,10.793571,-221.0006)">
      <path
         inkscape:connector-curvature="0"
         id="path2691"
         d="M 4,142.0003 V 144 c 0.021694,6.7e-4 0.040639,0 0.0625,0 h 57.875 c 0.02186,0 0.04081,6.7e-4 0.0625,0 v -1.9997 z"
         style="fill:#4d4d4d" />
      <path
         inkscape:connector-curvature="0"
         d="m 4,143.50022 v 0.5 c 0.021694,1.7e-4 0.040639,0 0.0625,0 h 57.875 c 0.02186,0 0.04081,1.7e-4 0.0625,0 v -0.5 z"
         id="path5362"
         style="fill:#4d4d4d;opacity:1" />
    </g>
    <g
       transform="translate(-44.999535,-27.00061)"
       id="bottomleft">
      <path
         inkscape:connector-curvature="0"
         id="path2697"
         d="m 54,90 v 4 h 4 v -2 -2 h -2 z"
         style="fill:#4d4d4d"
         sodipodi:nodetypes="ccccccc" />
      <path
         d="m 54,97 v 4 h 4 v -1 h -3 v -3 z"
         transform="translate(0,-6.9999975)"
         id="path3814"
         inkscape:connector-curvature="0"
         style="fill:#4d4d4d;opacity:1"
         sodipodi:nodetypes="ccccccc" />
    </g>
    <g
       transform="matrix(0.744186,0,0,2.4635078,-31.650704,-13.343751)"
       id="center">
      <g
         transform="matrix(0.344,0,0,0.8118505,3.584,-783.88382)"
         id="toolbutton-pressed-center">
        <path
           inkscape:connector-curvature="0"
           id="path11378"
           d="m 164,987.7235 v 16 h 125 v -16 z"
           style="fill:#4d4d4d" />
      </g>
    </g>
    <rect
       y="29.5"
       x="29.5"
       height="1"
       width="1"
       id="hint-top-margin"
       style="opacity:0.875;fill:#008000;fill-opacity:1;stroke:none;stroke-width:0.13363" />
    <g
       transform="matrix(-2,0,0,2,53.000452,-227.0006)"
       id="topright">
      <path
         inkscape:connector-curvature="0"
         d="M 4,127 H 2 v 2 h 1 1 v -1 z"
         id="path5336"
         style="fill:#4d4d4d"
         sodipodi:nodetypes="ccccccc" />
      <path
         inkscape:connector-curvature="0"
         d="m -12,12 h -4 v 4 h 1 v -3 h 3 z"
         transform="matrix(0.5,0,0,0.5,10,121)"
         id="path5338"
         sodipodi:nodetypes="ccccccc"
         style="fill:#4d4d4d;opacity:1" />
    </g>
    <rect
       style="opacity:0.875;fill:#008000;fill-opacity:1;stroke:none;stroke-width:0.13363"
       id="hint-bottom-margin"
       width="1"
       height="1"
       x="29.5"
       y="63.5" />
    <rect
       y="45.5"
       x="45.5"
       height="1"
       width="1"
       id="hint-right-margin"
       style="opacity:0.875;fill:#008000;fill-opacity:1;stroke:none;stroke-width:0.13363" />
    <g
       id="topleft"
       transform="matrix(2,0,0,2,5.000465,-227.0006)">
      <path
         inkscape:connector-curvature="0"
         id="path4234"
         d="M 4,127 H 2 v 2 h 1 1 v -1 z"
         style="fill:#4d4d4d"
         sodipodi:nodetypes="ccccccc" />
      <path
         inkscape:connector-curvature="0"
         sodipodi:nodetypes="ccccccc"
         id="path4236"
         transform="matrix(0.5,0,0,0.5,10,121)"
         d="m -12,12 h -4 v 4 h 1 v -3 h 3 z"
         style="fill:#4d4d4d;opacity:1" />
    </g>
    <g
       transform="matrix(-2,0,0,2.4615385,137.0006,-286.53907)"
       id="left">
      <path
         inkscape:connector-curvature="0"
         d="m 62.000297,129 v 13 H 64 c 6.68e-4,-0.0217 0,-0.0406 0,-0.0625 v -12.875 c 0,-0.0219 6.68e-4,-0.0408 0,-0.0625 z"
         id="path4246"
         style="fill:#4d4d4d" />
      <path
         inkscape:connector-curvature="0"
         id="path4248"
         d="m 63.500223,129 v 13 h 0.5 c 1.67e-4,-0.0217 0,-0.0406 0,-0.0625 v -12.875 c 0,-0.0219 1.67e-4,-0.0408 0,-0.0625 z"
         style="fill:#4d4d4d;opacity:1" />
    </g>
    <g
       transform="matrix(-1,0,0,1,103.00045,-27.00061)"
       id="bottomright">
      <path
         inkscape:connector-curvature="0"
         d="m 54,90 v 4 h 4 v -2 -2 h -2 z"
         id="path4279"
         style="fill:#4d4d4d"
         sodipodi:nodetypes="ccccccc" />
      <path
         d="m 93,97 v 3 h -3 v 1 h 4 v -4 z"
         transform="matrix(-1,0,0,1,148,-6.9999975)"
         id="path3046"
         inkscape:connector-curvature="0"
         style="fill:#4d4d4d;opacity:1"
         sodipodi:nodetypes="ccccccc" />
    </g>
    <rect
       style="opacity:0.875;fill:#008000;fill-opacity:1;stroke:none;stroke-width:0.13363"
       id="hint-left-margin"
       width="1"
       height="1"
       x="11.5"
       y="45.562355" />
    <rect
       style="opacity:0.875;fill:#ff00ff;fill-opacity:1;stroke:none;stroke-width:0.000132198"
       id="hint-right-inset"
       width="0.001"
       height="0.00097867835"
       x="52.614082"
       y="48.97607" />
    <rect
       y="48.97607"
       x="4.6140833"
       height="0.00097867835"
       width="0.001"
       id="hint-left-inset"
       style="opacity:0.875;fill:#ff00ff;fill-opacity:1;stroke:none;stroke-width:0.000132198" />
    <rect
       style="opacity:0.875;fill:#ff00ff;fill-opacity:1;stroke:none;stroke-width:0.000132198"
       id="hint-top-inset"
       width="0.001"
       height="0.00097867835"
       x="34.9995"
       y="21.00001" />
    <rect
       y="67.97657"
       x="34.614582"
       height="0.00097867835"
       width="0.001"
       id="hint-bottom-inset"
       style="opacity:0.875;fill:#ff00ff;fill-opacity:1;stroke:none;stroke-width:0.000132197" />
    <g
       transform="matrix(0.5517241,0,0,2,10.793569,-163.0006)"
       id="focus-top">
      <path
         class="ColorScheme-Background"
         style="fill:currentColor;stroke-width:0.99992555"
         d="M 4,127.0003 V 129 h 58 v -1.9997 c -0.02169,-6.7e-4 -0.04064,0 -0.0625,0 H 4.0625 c -0.021861,0 -0.040806,-6.7e-4 -0.0625,0 z"
         id="path948"
         inkscape:connector-curvature="0" />
      <path
         class="ColorScheme-Highlight"
         id="path950"
         d="M 4,127.00007 V 127.5 h 58 v -0.49993 c -0.02169,-1.6e-4 -0.04064,0 -0.0625,0 H 4.0625 c -0.021861,0 -0.040806,-1.6e-4 -0.0625,0 z"
         style="fill:#e6e6e6;fill-rule:nonzero;stroke:none;fill-opacity:1"
         inkscape:connector-curvature="0" />
    </g>
    <g
       transform="matrix(2,0,0,2.4615385,-78.999535,-222.53907)"
       id="focus-right">
      <path
         class="ColorScheme-Background"
         style="fill:currentColor;stroke-width:0.99992579"
         d="m 62,129 v 13 h 1.999703 c 6.68e-4,-0.0217 0,-0.0406 0,-0.0625 v -12.875 c 0,-0.0219 6.68e-4,-0.0408 0,-0.0625 z"
         id="path956"
         inkscape:connector-curvature="0" />
      <path
         class="ColorScheme-Highlight"
         id="path958"
         d="m 63.500223,129 v 13 h 0.5 c 1.67e-4,-0.0217 0,-0.0406 0,-0.0625 v -12.875 c 0,-0.0219 1.67e-4,-0.0408 0,-0.0625 z"
         style="fill:#e6e6e6;fill-rule:nonzero;stroke:none;fill-opacity:1"
         inkscape:connector-curvature="0" />
    </g>
    <g
       transform="matrix(0.5517241,0,0,2,10.793571,-157.0006)"
       id="focus-bottom">
      <path
         class="ColorScheme-Background"
         style="fill:currentColor;stroke-width:0.99992555"
         d="M 4,142.0003 V 144 c 0.021694,6.7e-4 0.040639,0 0.0625,0 h 57.875 c 0.02186,0 0.04081,6.7e-4 0.0625,0 v -1.9997 z"
         id="path964"
         inkscape:connector-curvature="0" />
      <path
         class="ColorScheme-Highlight"
         id="path966"
         d="m 4,143.50022 v 0.5 c 0.021694,1.7e-4 0.040639,0 0.0625,0 h 57.875 c 0.02186,0 0.04081,1.7e-4 0.0625,0 v -0.5 z"
         style="fill:#e6e6e6;fill-rule:nonzero;stroke:none;fill-opacity:1"
         inkscape:connector-curvature="0" />
    </g>
    <g
       id="focus-bottomleft"
       transform="translate(-44.999535,36.99939)">
      <path
         class="ColorScheme-Background"
         style="fill:currentColor"
         d="m 54,90 c 0.06722,2.1827 1.817292,3.93278 4,4 v -4 z"
         id="path972"
         inkscape:connector-curvature="0" />
      <path
         class="ColorScheme-Highlight"
         inkscape:connector-curvature="0"
         id="path974"
         transform="translate(0,-6.9999975)"
         d="m 54,97 c 0.06722,2.1827 1.817292,3.93278 4,4 v -1 c -1.637032,-0.05042 -2.94958,-1.362974 -3,-3 z"
         style="fill:#e6e6e6;fill-rule:nonzero;stroke:none;fill-opacity:1" />
    </g>
    <g
       id="focus-center"
       transform="matrix(0.744186,0,0,2.4635078,-31.650704,50.656249)">
      <g
         id="g982"
         transform="matrix(0.344,0,0,0.8118505,3.584,-783.88382)">
        <path
           class="ColorScheme-Background"
           style="fill:currentColor"
           d="m 164,987.7235 v 16 h 125 v -16 z"
           id="path980"
           inkscape:connector-curvature="0" />
      </g>
    </g>
    <g
       id="focus-topright"
       transform="matrix(-2,0,0,2,53.000452,-163.0006)">
      <path
         class="ColorScheme-Background"
         id="path986"
         d="m 4,127 c -1.0913544,0.0336 -1.9663917,0.90865 -2,2 h 2 z"
         style="fill:currentColor"
         inkscape:connector-curvature="0" />
      <path
         class="ColorScheme-Highlight"
         sodipodi:nodetypes="ccccc"
         id="path988"
         transform="matrix(0.5,0,0,0.5,10,121)"
         d="m -12,12 c -2.182709,0.06722 -3.932783,1.8173 -4,4 h 1 c 0,-1.5625 1.34375,-3 3,-3 z"
         style="fill:#e6e6e6;fill-rule:nonzero;stroke:none;fill-opacity:1"
         inkscape:connector-curvature="0" />
    </g>
    <rect
       style="opacity:0.875;fill:#008000;fill-opacity:1;stroke:none;stroke-width:0.65465367"
       id="focus-hint-top-margin"
       width="4"
       height="6"
       x="28"
       y="91" />
    <rect
       y="125"
       x="28"
       height="6"
       width="4"
       id="focus-hint-bottom-margin"
       style="opacity:0.875;fill:#008000;fill-opacity:1;stroke:none;stroke-width:0.65465367" />
    <rect
       style="opacity:0.875;fill:#008000;fill-opacity:1;stroke:none;stroke-width:0.65465367"
       id="focus-hint-right-margin"
       width="6"
       height="4"
       x="43"
       y="108" />
    <g
       transform="matrix(2,0,0,2,5.000465,-163.0006)"
       id="focus-topleft">
      <path
         class="ColorScheme-Background"
         style="fill:currentColor"
         d="m 4,127 c -1.0913544,0.0336 -1.9663917,0.90865 -2,2 h 2 z"
         id="path1000"
         inkscape:connector-curvature="0" />
      <path
         class="ColorScheme-Highlight"
         style="fill:#e6e6e6;fill-rule:nonzero;stroke:none;fill-opacity:1"
         d="m -12,12 c -2.182709,0.06722 -3.932783,1.8173 -4,4 h 1 c 0,-1.5625 1.34375,-3 3,-3 z"
         transform="matrix(0.5,0,0,0.5,10,121)"
         id="path1002"
         sodipodi:nodetypes="ccccc"
         inkscape:connector-curvature="0" />
    </g>
    <g
       id="focus-left"
       transform="matrix(-2,0,0,2.4615385,137.0006,-222.53907)">
      <path
         class="ColorScheme-Background"
         id="path1008"
         d="m 62.000297,129 v 13 H 64 c 6.68e-4,-0.0217 0,-0.0406 0,-0.0625 v -12.875 c 0,-0.0219 6.68e-4,-0.0408 0,-0.0625 z"
         style="fill:currentColor;stroke-width:0.99992579"
         inkscape:connector-curvature="0" />
      <path
         class="ColorScheme-Highlight"
         style="fill:#e6e6e6;fill-rule:nonzero;stroke:none;fill-opacity:1"
         d="m 63.500223,129 v 13 h 0.5 c 1.67e-4,-0.0217 0,-0.0406 0,-0.0625 v -12.875 c 0,-0.0219 1.67e-4,-0.0408 0,-0.0625 z"
         id="path1011"
         inkscape:connector-curvature="0" />
    </g>
    <g
       id="focus-bottomright"
       transform="matrix(-1,0,0,1,103.00045,36.99939)">
      <path
         class="ColorScheme-Background"
         id="path1017"
         d="m 54,90 c 0.06722,2.1827 1.817292,3.93278 4,4 v -4 z"
         style="fill:currentColor"
         inkscape:connector-curvature="0" />
      <path
         class="ColorScheme-Highlight"
         inkscape:connector-curvature="0"
         id="path1019"
         transform="matrix(-1,0,0,1,148,-6.9999975)"
         d="m 93,97 c -0.05042,1.637026 -1.362968,2.949585 -3,3 v 1 c 2.182708,-0.0672 3.93278,-1.8173 4,-4 z"
         style="fill:#e6e6e6;fill-rule:nonzero;stroke:none;fill-opacity:1" />
    </g>
    <rect
       y="108.06236"
       x="9"
       height="4"
       width="6"
       id="focus-hint-left-margin"
       style="opacity:0.875;fill:#008000;fill-opacity:1;stroke:none;stroke-width:0.65465367" />
    <rect
       y="113"
       x="49"
       height="4"
       width="8"
       id="focus-hint-right-inset"
       style="opacity:0.875;fill:#ff00ff;fill-opacity:1;stroke:none;stroke-width:0.75592893" />
    <rect
       style="opacity:0.875;fill:#ff00ff;fill-opacity:1;stroke:none;stroke-width:0.75592893"
       id="focus-hint-left-inset"
       width="8"
       height="4"
       x="1"
       y="113" />
    <rect
       y="83"
       x="34"
       height="8"
       width="4"
       id="focus-hint-top-inset"
       style="opacity:0.875;fill:#ff00ff;fill-opacity:1;stroke:none;stroke-width:0.75592893" />
    <rect
       style="opacity:0.875;fill:#ff00ff;fill-opacity:1;stroke:none;stroke-width:0.75592893"
       id="focus-hint-bottom-inset"
       width="4"
       height="8"
       x="34"
       y="131" />
  </g>
</svg>
